<svg width="160" height="40" fill="none" xmlns="http://www.w3.org/2000/svg"><path id="myteam" fill-rule="evenodd" clip-rule="evenodd" d="M68.3174 29.5312V13.2143h4.3823V8.19196h-4.3823V0h-6.17v8.19196h-3.7936v5.02234h3.7936v16.3169h6.17zM6.21366 18.2366v11.2946H0V8.19196h6.21366v3.10264c.50872-1.1011 1.23547-1.97168 2.18024-2.61156 1.01744-.61012 2.1076-.91518 3.2703-.91518 3.2995 0 5.5306 1.25 6.6934 3.75004 1.5261-2.5298 3.5973-3.79469 6.2136-3.79469 2.6163 0 4.6148.84078 5.9957 2.52229 1.3808 1.6816 2.0712 4.07 2.0712 7.1652v12.1205h-6.1483V18.1473c0-1.3095-.3125-2.3437-.9375-3.1027-.654-.7589-1.5116-1.1384-2.5726-1.1384-1.0611 0-1.9114.3572-2.5509 1.0715-.6396.7143-.9593 1.8006-.9593 3.2589v11.2946h-6.2137V18.0134c-.0581-1.2798-.3997-2.2842-1.0247-3.0134-.6395-.7292-1.468-1.0938-2.48546-1.0938-1.01744 0-1.86047.3498-2.52907 1.0492-.6686.6994-1.00291 1.7931-1.00291 3.2812zM57.4981 8.19196L44.6347 40h-6.5625l5.0146-12.6562-8.0451-19.15184h6.6061l4.6003 12.09824L50.892 8.19196h6.6061zM95.2923 25.6473c-1.9332 2.9018-5.109 4.3453-9.5277 4.3304-3.0668 0-5.654-1.0342-7.7616-3.1027-2.0785-2.0982-3.1177-4.7917-3.1177-8.0804 0-3.2886 1.0392-5.9598 3.1177-8.0134 2.0785-2.05352 4.6512-3.07287 7.718-3.05799 3.0669 0 5.6178 1.04167 7.6527 3.12499 2.0348 2.0833 3.0596 4.7917 3.0741 8.125 0 .0298-.0291.6845-.0872 1.9643H81.0771c.1163 1.131.6832 2.0089 1.7006 2.6339 1.0175.625 2.1657.9375 3.4448.9375 1.9913 0 3.5102-.6696 4.5567-2.0089l4.5131 3.1473zm-5.1018-8.683h-9.0261c.2325-1.1607.8139-2.0685 1.7441-2.7232.9012-.6548 1.875-.9673 2.9215-.9375 1.0466.0297 1.9986.3571 2.8562.9821.8575.625 1.359 1.5179 1.5043 2.6786zm22.8975 12.2545c-1.177.5059-2.303.744-3.379.7142-2.863 0-5.349-1.0268-7.456-3.0803-2.108-2.0536-3.1618-4.7247-3.1618-8.0134 0-3.2887 1.0898-5.9598 3.2708-8.0134 2.18-2.05358 4.629-3.0878 7.347-3.10269 1.105 0 2.238.24554 3.401.73661 1.163.49107 2.057 1.19048 2.682 2.09818V8.19196h6.148V29.5312h-6.148v-2.433c-.625.9078-1.526 1.6146-2.704 2.1206zm-2.376-5.3126c-1.41 0-2.624-.4761-3.641-1.4285-1.047-.9524-1.57-2.1578-1.57-3.6161 0-1.4434.523-2.6562 1.57-3.6384 1.134-.9672 2.376-1.4509 3.728-1.4509 1.352 0 2.522.4762 3.51 1.4286.989.9524 1.483 2.1726 1.483 3.6607 0 1.4881-.494 2.7009-1.483 3.6384-.988.9375-2.187 1.4062-3.597 1.4062zm22.81-5.6696v11.2946h-6.213V8.19196h6.213v3.10264c.509-1.1011 1.236-1.97168 2.181-2.61156 1.017-.61012 2.107-.91518 3.27-.91518 3.299 0 5.531 1.25 6.693 3.75004 1.527-2.5298 3.598-3.79469 6.214-3.79469 2.616 0 4.615.84078 5.996 2.52229 1.38 1.6816 2.071 4.07 2.071 7.1652v12.1205h-6.148V18.1473c0-1.3095-.313-2.3437-.938-3.1027-.654-.7589-1.511-1.1384-2.573-1.1384-1.061 0-1.911.3572-2.55 1.0715-.64.7143-.96 1.8006-.96 3.2589v11.2946h-6.213V18.0134c-.059-1.2798-.4-2.2842-1.025-3.0134-.64-.7292-1.468-1.0938-2.486-1.0938-1.017 0-1.86.3498-2.529 1.0492-.668.6994-1.003 1.7931-1.003 3.2812z" fill="#fff"/></svg>